<?xml version="1.0" encoding="utf-8"?>
<!-- Generator: Adobe Illustrator 21.0.2, SVG Export Plug-In . SVG Version: 6.00 Build 0)  -->
<svg version="1.1" id="Layer_1" xmlns="http://www.w3.org/2000/svg" xmlns:xlink="http://www.w3.org/1999/xlink" x="0px" y="0px"
	 viewBox="0 0 1546.7 300" style="enable-background:new 0 0 1546.7 300;" xml:space="preserve">
<style type="text/css">
	.st0{fill:#91DC5A;}
	.st1{fill:#64C37D;}
	.st2{fill:#C2FB3B;}
	.st3{enable-background:new    ;}
</style>
<g id="XMLID_892_">
	<path id="XMLID_893_" class="st0" d="M257.5,161.6c-35.6,17.8-55.5,36.4-66.3,59.7c2.9-34.7,10.1-64.3,28-76.2h-50h-50
		c17.9,11.9,25.1,41.5,28,76.2c-10.8-23.2-30.7-41.9-66.3-59.7l-13.4,26.8c52.8,26.4,61.7,49.8,61.7,106.6h80
		c0-56.8,8.9-80.2,61.7-106.6L257.5,161.6z"/>
	<path id="XMLID_894_" class="st1" d="M169.2,145h-50c17.9,11.9,25.1,41.5,28,76.2c-10.8-23.2-30.7-41.9-66.3-59.7l-13.4,26.8
		c52.8,26.5,61.7,49.9,61.7,106.7h40V145z"/>
	<path id="XMLID_895_" class="st2" d="M295.9,122.8c2.1-5.5,3.3-11.5,3.3-17.8c0-27.6-22.4-50-50-50c-1.9,0-3.8,0.1-5.7,0.3
		C231.7,25.8,202.9,5,169.2,5s-62.5,20.8-74.3,50.3C93,55.1,91.1,55,89.2,55c-27.6,0-50,22.4-50,50c0,6.3,1.2,12.2,3.3,17.8
		c-14,8.8-23.3,24.4-23.3,42.2c0,27.6,22.4,50,50,50c18.9,0,35.4-10.5,43.9-26.1c11.7-6.4,20.6-17.4,24.3-30.5
		c9.8,4.2,20.5,6.6,31.8,6.6s22.1-2.4,31.8-6.6c3.6,13.1,12.5,24.1,24.3,30.5c8.5,15.5,25,26.1,43.9,26.1c27.6,0,50-22.4,50-50
		C319.2,147.2,309.9,131.6,295.9,122.8z"/>
	<path id="XMLID_896_" class="st0" d="M169.2,5c-33.7,0-62.5,20.8-74.3,50.3C93,55.1,91.1,55,89.2,55c-27.6,0-50,22.4-50,50
		c0,6.3,1.2,12.2,3.3,17.8c-14,8.8-23.3,24.4-23.3,42.2c0,27.6,22.4,50,50,50c18.9,0,35.4-10.5,43.9-26.1
		c11.7-6.4,20.6-17.4,24.3-30.5c9.8,4.2,20.5,6.6,31.8,6.6C169.2,127.5,169.2,54,169.2,5z"/>
</g>
<g class="st3">
	<path d="M424,205.5c-8.5,5.5-21.6,8.5-38.1,8.5h-12c-4.5,0-8.5,0-12.5-0.5V76.7l28.6-0.5c11.5,0,20.6,3,27.1,9s9.5,14,9.5,24.6
		c0,9-2,16-5.5,21.6c-4,5.5-9,10-15.5,12.5c10,1.5,17.5,5,23.6,10.5c6,5.5,8.5,13.5,8.5,24.1C437,191,432.5,200,424,205.5z
		 M366.3,141.8l28.6,0.5c8-1.5,14.5-5,18.5-10.5c4.5-5.5,6.5-13,6.5-21.6c0-8.5-2.5-15-8-20.6s-12.5-8-22.1-8h-24.1v60.2H366.3z
		 M422.5,156.9c-6-5-14.5-8.5-25.6-9l-30.6,0.5v60.2c6,0.5,12,1,18.5,1c15,0,26.6-2.5,34.6-7.5s12-12.5,12-23.1
		C431,168.9,428.5,161.9,422.5,156.9z"/>
	<path d="M539.8,187c6,8,13,16,21.6,24.6l0.5,1c-0.5,0.5-1.5,0.5-2,1s-1,0.5-2,1l-2-0.5c-8.5-8-15.5-16.5-21.6-25.1
		c-6-8.5-12-18-18.5-27.6h-29.6V209l41.6-17.5c0.5,0.5,0.5,0.5,0.5,1s0.5,0.5,0.5,1l-77.2,32.6H451c-0.5,0-1,0-1-0.5
		c-0.5-0.5,0-1.5,0.5-1.5l29.6-12.5V76.7l32.1-0.5c13,0,23.1,3.5,30.1,10.5s10.5,16.5,10.5,28.6c0,10.5-2.5,19.6-8,28.1
		c-5.5,8-13.5,14-24.1,17C527.7,170.4,533.7,178.9,539.8,187z M477.1,225.1L477.1,225.1v-0.5V225.1
		C477.6,225.1,477.6,225.1,477.1,225.1z M540.3,141.8c5-7.5,8-16,8-26.1c0-10.5-3-18.5-8.5-24.6c-6-6-14-9.5-25.1-10l-28.1,0.5v74.7
		l31.1,0.5C527.7,153.9,535.3,148.9,540.3,141.8z M490.1,225.1C490.1,225.1,489.6,225.1,490.1,225.1h-0.5H490.1
		C489.6,224.6,490.1,224.6,490.1,225.1z M503.2,211.5c0,0.5,0,0.5-0.5,0.5s-0.5,0-0.5-0.5s0-0.5,0.5-0.5
		C502.7,211,503.2,211,503.2,211.5z M502.2,225.1L502.2,225.1v-0.5V225.1C502.7,225.1,502.7,225.1,502.2,225.1z M515.2,211.5
		c0,0.5,0,0.5-0.5,0.5c0,0-0.5,0-0.5-0.5s0-0.5,0.5-0.5S515.2,211,515.2,211.5z M515.2,225.1c0,0,0,0.5-0.5,0.5l-0.5-0.5l0.5-0.5
		C515.2,224.6,515.2,224.6,515.2,225.1z M528.2,211.5c0,0.5,0,0.5-0.5,0.5s-0.5,0-0.5-0.5s0-0.5,0.5-0.5
		C527.7,211,528.2,211,528.2,211.5z M527.7,225.1L527.7,225.1c-0.5,0.5-0.5,0-0.5,0H527.7C527.7,224.6,527.7,224.6,527.7,225.1z
		 M540.8,211.5c0,0.5,0,0.5-0.5,0.5s-0.5,0-0.5-0.5s0-0.5,0.5-0.5C540.3,211,540.8,211,540.8,211.5z M540.3,225.1L540.3,225.1v-0.5
		V225.1C540.8,225.1,540.3,225.1,540.3,225.1z M578.4,172.9l-31.1,13c-0.5-0.5-0.5-0.5-1-1c0-0.5-0.5-0.5-0.5-1l31.6-13
		c0.5-0.5,1,0,1.5,0.5S579.4,172.4,578.4,172.9z M552.8,225.1L552.8,225.1h-0.5H552.8C552.8,224.6,552.8,224.6,552.8,225.1z
		 M566.3,185c0,0.5-0.5,1-1,1s-1-0.5-1-1s0.5-1,1-1C565.8,184.5,566.3,184.5,566.3,185z M565.8,198.5c0,0.5,0,1-0.5,1s-1-0.5-1-1
		s0.5-1,1-1S565.8,198,565.8,198.5z M565.3,225.1L565.3,225.1v-0.5V225.1C565.8,225.1,565.8,225.1,565.3,225.1z M578.9,185
		c0,0.5-0.5,1-1,1s-1-0.5-1-1s0.5-1,1-1C578.9,184.5,578.9,184.5,578.9,185z M578.9,198.5c0,0.5-0.5,1-1,1s-0.5-0.5-0.5-1s0-1,0.5-1
		S578.9,198,578.9,198.5z M578.4,211.5c0,0.5,0,0.5-0.5,0.5c0,0-0.5,0-0.5-0.5s0-0.5,0.5-0.5S578.4,211,578.4,211.5z M578.4,225.1
		c0,0,0,0.5-0.5,0.5l-0.5-0.5l0.5-0.5C577.9,224.6,578.4,224.6,578.4,225.1z"/>
	<path d="M588.4,165.4l-9.5,7c0,0-0.5,0.5-1,0.5c0,0-0.5,0-1-0.5s-0.5-1,0.5-1.5l11-7.5V165.4z M592.9,171.9c0,0.5-0.5,1-1,1
		s-1-0.5-1-1s0.5-1,1-1S592.9,170.9,592.9,171.9z M592.4,185c0,0.5-0.5,1-1,1s-1-0.5-1-1s0.5-1,1-1
		C592.4,184.5,592.4,184.5,592.4,185z M592.4,198.5c0,0.5,0,1-0.5,1s-1-0.5-1-1s0.5-1,1-1C591.9,197.5,592.4,198,592.4,198.5z
		 M591.9,211.5c0,0.5,0,0.5-0.5,0.5s-0.5,0-0.5-0.5s0-0.5,0.5-0.5S591.9,211,591.9,211.5z M591.9,225.1
		C591.4,225.1,591.4,225.1,591.9,225.1v-0.5V225.1L591.9,225.1z M697.2,92.7c10,11.5,15,28.1,15,49.6c0,23.1-5,41.1-15.5,53.6
		s-25.1,18.5-44.6,18.5c-18.5,0-33.1-6-43.1-18s-15-29.1-15-51.1c0-22.6,5-40.1,15.5-52.1s25.1-18,45.1-18
		C672.6,75.7,687.1,81.2,697.2,92.7z M692.2,192.5c9.5-11.5,14-27.6,14-49.1c0-20.1-4.5-35.6-13.5-46.1s-22.1-16-39.1-16
		c-17.5,0-31.1,5.5-40.6,16.5s-14,27.1-14,47.6s4.5,36.6,13.5,47.6s22.1,16.5,38.6,16.5C669.1,209.5,682.6,204,692.2,192.5z
		 M605.9,211.5c0,0.5,0,0.5-0.5,0.5s-0.5,0-0.5-0.5s0-0.5,0.5-0.5C605.4,211,605.9,211,605.9,211.5z M605.4,225.1L605.4,225.1
		c-0.5,0.5-0.5,0-0.5,0H605.4C605.4,224.6,605.4,224.6,605.4,225.1z M684.1,97.7l-78.2,55.1v-2.5l76.2-54.1L684.1,97.7z M620,158.4
		c0,0.5-0.5,1-1.5,1c-0.5,0-1-0.5-1-1c0-1,0.5-1.5,1-1.5C619.5,157.4,620,157.9,620,158.4z M620,171.9c0,0.5-0.5,1-1,1s-1-0.5-1-1
		s0.5-1,1-1S620,170.9,620,171.9z M620,185c0,0.5-0.5,1-1,1s-1-0.5-1-1s0.5-1,1-1C619.5,184.5,620,184.5,620,185z M619,225.1
		L619,225.1h-0.5H619C619,224.6,619,224.6,619,225.1z M634,145.4c0,1-0.5,1.5-1.5,1.5s-1.5-0.5-1.5-1.5s0.5-1.5,1.5-1.5
		S634,144.3,634,145.4z M633.5,158.4c0,0.5-0.5,1-1,1c-1,0-1.5-0.5-1.5-1c0-1,0.5-1.5,1.5-1.5C633.5,157.4,633.5,157.9,633.5,158.4z
		 M633.5,171.9c0,0.5-0.5,1-1,1s-1-0.5-1-1s0.5-1,1-1S633.5,170.9,633.5,171.9z M633.5,185c0,0.5-0.5,1-1,1s-1-0.5-1-1s0.5-1,1-1
		C633,184.5,633.5,184.5,633.5,185z M633,198.5c0,0.5,0,1-0.5,1s-1-0.5-1-1s0.5-1,1-1S633,198,633,198.5z M632.5,225.1
		c-0.5,0-0.5,0-0.5-0.5l0.5-0.5V225.1C633,225.1,633,225.1,632.5,225.1z M647.5,131.8c0,1-0.5,1.5-1.5,1.5s-1.5-0.5-1.5-1.5
		c0-1.5,0.5-2,1.5-2C647,130.3,647.5,130.8,647.5,131.8z M647.5,145.4c0,1-0.5,1.5-1.5,1.5s-1.5-0.5-1.5-1.5s0.5-1.5,1.5-1.5
		S647.5,144.3,647.5,145.4z M647.5,158.4c0,0.5-0.5,1-1.5,1s-1.5-0.5-1.5-1c0-1,0.5-1.5,1.5-1.5C647,157.4,647.5,157.9,647.5,158.4z
		 M647,171.9c0,0.5-0.5,1-1,1s-1-0.5-1-1s0.5-1,1-1S647,170.9,647,171.9z M647,185c0,0.5-0.5,1-1,1s-1-0.5-1-1s0.5-1,1-1
		C646.5,184.5,647,184.5,647,185z M646.5,198.5c0,0.5,0,1-0.5,1s-1-0.5-1-1s0.5-1,1-1S646.5,198,646.5,198.5z M646,225.1L646,225.1
		v-0.5V225.1C646.5,225.1,646.5,225.1,646,225.1z M661.1,131.8c0,1-0.5,1.5-1.5,1.5s-1.5-0.5-1.5-1.5c0-1.5,0.5-2,1.5-2
		C660.6,130.3,661.1,130.8,661.1,131.8z M661.1,145.4c0,1-0.5,1.5-1.5,1.5s-1.5-0.5-1.5-1.5s0.5-1.5,1.5-1.5
		S661.1,144.3,661.1,145.4z M661.1,158.4c0,0.5-0.5,1-1.5,1s-1.5-0.5-1.5-1c0-1,0.5-1.5,1.5-1.5
		C660.6,157.4,661.1,157.9,661.1,158.4z M660.6,171.9c0,0.5-0.5,1-1,1s-1-0.5-1-1s0.5-1,1-1S660.6,170.9,660.6,171.9z M660.6,185
		c0,0.5-0.5,1-1,1s-1-0.5-1-1s0.5-1,1-1S660.6,184.5,660.6,185z M660.6,198.5c0,0.5-0.5,1-1,1s-0.5-0.5-0.5-1s0-1,0.5-1
		S660.6,198,660.6,198.5z M660.1,225.1L660.1,225.1c-0.5,0.5-0.5,0-0.5,0H660.1C660.1,224.6,660.1,224.6,660.1,225.1z M675.1,118.3
		c0,1.5-0.5,2-2,2c-1,0-1.5-0.5-1.5-2c0-1,0.5-1.5,1.5-1.5C674.6,116.8,675.1,117.3,675.1,118.3z M675.1,131.8c0,1-0.5,1.5-2,1.5
		c-1,0-1.5-0.5-1.5-1.5c0-1.5,0.5-2,1.5-2C674.6,130.3,675.1,130.8,675.1,131.8z M674.6,145.4c0,1-0.5,1.5-1.5,1.5s-1.5-0.5-1.5-1.5
		s0.5-1.5,1.5-1.5S674.6,144.3,674.6,145.4z M674.6,158.4c0,0.5-0.5,1-1.5,1c-0.5,0-1-0.5-1-1c0-1,0.5-1.5,1-1.5
		C674.1,157.4,674.6,157.9,674.6,158.4z M674.1,171.9c0,0.5-0.5,1-1,1s-1-0.5-1-1s0.5-1,1-1S674.1,170.9,674.1,171.9z M674.1,185
		c0,0.5-0.5,1-1,1s-1-0.5-1-1s0.5-1,1-1C674.1,184.5,674.1,184.5,674.1,185z M674.1,198.5c0,0.5-0.5,1-1,1s-0.5-0.5-0.5-1s0-1,0.5-1
		S674.1,198,674.1,198.5z M673.6,225.1L673.6,225.1h-0.5H673.6C673.6,224.6,673.6,224.6,673.6,225.1z M689.2,105.2c0,1.5-0.5,2-2,2
		s-2-0.5-2-2s0.5-2,2-2C688.1,103.2,689.2,103.7,689.2,105.2z M688.6,118.3c0,1.5-0.5,2-1.5,2c-1.5,0-2-0.5-2-2c0-1,0.5-1.5,2-1.5
		C688.1,116.8,688.6,117.3,688.6,118.3z M688.6,131.8c0,1-0.5,1.5-1.5,1.5c-1.5,0-2-0.5-2-1.5c0-1.5,0.5-2,2-2
		C688.1,130.3,688.6,130.8,688.6,131.8z M688.1,145.4c0,1-0.5,1.5-1.5,1.5s-1.5-0.5-1.5-1.5s0.5-1.5,1.5-1.5
		C688.1,143.8,688.1,144.3,688.1,145.4z M688.1,158.4c0,0.5-0.5,1-1,1c-1,0-1.5-0.5-1.5-1c0-1,0.5-1.5,1.5-1.5
		C687.6,157.4,688.1,157.9,688.1,158.4z M688.1,171.9c0,0.5-0.5,1-1,1s-1-0.5-1-1s0.5-1,1-1S688.1,170.9,688.1,171.9z M687.6,185
		c0,0.5-0.5,1-1,1s-1-0.5-1-1s0.5-1,1-1C687.6,184.5,687.6,184.5,687.6,185z M687.1,211.5c0,0.5,0,0.5-0.5,0.5s-0.5,0-0.5-0.5
		s0-0.5,0.5-0.5S687.1,211,687.1,211.5z M687.1,225.1C686.6,225.1,686.6,225.1,687.1,225.1v-0.5V225.1L687.1,225.1z M728.3,66.1
		l-28.1,20.1l-1.5-1.5l28.6-20.1c0.5-0.5,1.5-0.5,1.5,0.5C729.3,65.6,728.8,66.1,728.3,66.1z M701.2,211.5c0,0.5,0,0.5-0.5,0.5
		s-0.5,0-0.5-0.5s0-0.5,0.5-0.5S701.2,211,701.2,211.5z M700.7,225.1L700.7,225.1c-0.5,0.5-0.5,0-0.5,0H700.7
		C700.7,224.6,700.7,224.6,700.7,225.1z M716.2,92.2c0,1.5-0.5,2.5-2,2.5s-2-1-2-2.5s0.5-2,2-2C715.7,89.7,716.2,90.7,716.2,92.2z
		 M716.2,105.2c0,1.5-0.5,2-2,2s-2-0.5-2-2s0.5-2,2-2S716.2,103.7,716.2,105.2z M714.7,185c0,0.5-0.5,1-1,1s-1-0.5-1-1s0.5-1,1-1
		C714.7,184.5,714.7,184.5,714.7,185z M714.7,198.5c0,0.5-0.5,1-1,1s-0.5-0.5-0.5-1s0-1,0.5-1C714.7,197.5,714.7,198,714.7,198.5z
		 M714.7,211.5c0,0.5,0,0.5-0.5,0.5s-0.5,0-0.5-0.5s0-0.5,0.5-0.5C714.2,211,714.7,211,714.7,211.5z M714.2,225.1L714.2,225.1h-0.5
		H714.2C714.2,224.6,714.2,224.6,714.2,225.1z M730.3,78.7c0,1.5-1,2.5-2.5,2.5c-0.5,0-1,0-1.5-0.5s-1-1-1-2c0-0.5,0.5-1.5,1-2
		s1-0.5,1.5-0.5C729.3,76.2,730.3,77.2,730.3,78.7z M730.3,92.2c0,1.5-1,2.5-2.5,2.5s-2-1-2-2.5s0.5-2,2-2
		C729.3,89.7,730.3,90.7,730.3,92.2z M729.8,105.2c0,1.5-0.5,2-2,2s-2-0.5-2-2s0.5-2,2-2S729.8,103.7,729.8,105.2z M729.8,118.3
		c0,1.5-0.5,2-2,2c-1,0-1.5-0.5-1.5-2c0-1,0.5-1.5,1.5-1.5S729.8,117.3,729.8,118.3z M729.8,131.8c0,1-0.5,1.5-2,1.5
		c-1,0-1.5-0.5-1.5-1.5c0-1.5,0.5-2,1.5-2C728.8,130.3,729.8,130.8,729.8,131.8z M729.3,145.4c0,1-0.5,1.5-1.5,1.5s-1.5-0.5-1.5-1.5
		s0.5-1.5,1.5-1.5C728.8,143.8,729.3,144.3,729.3,145.4z M728.8,158.4c0,0.5-0.5,1-1.5,1c-0.5,0-1-0.5-1-1c0-1,0.5-1.5,1-1.5
		C728.8,157.4,728.8,157.9,728.8,158.4z M728.8,171.9c0,0.5-0.5,1-1,1s-1-0.5-1-1s0.5-1,1-1S728.8,170.9,728.8,171.9z M728.8,185
		c0,0.5-0.5,1-1,1s-1-0.5-1-1s0.5-1,1-1C728.3,184.5,728.8,184.5,728.8,185z M728.3,198.5c0,0.5-0.5,1-1,1s-0.5-0.5-0.5-1s0-1,0.5-1
		C728.3,197.5,728.3,198,728.3,198.5z M728.3,211.5c0,0.5,0,0.5-0.5,0.5c0,0-0.5,0-0.5-0.5s0-0.5,0.5-0.5
		C727.7,211,728.3,211,728.3,211.5z M728.3,225.1c0,0,0,0.5-0.5,0.5l-0.5-0.5l0.5-0.5C727.7,224.6,727.7,224.6,728.3,225.1z"/>
	<path d="M726.7,65.1c0-1,0.5-1,1.5-1L838,103.7v2.5L727.7,66.1C726.7,66.1,726.2,65.6,726.7,65.1z M743.3,92.2c0,1.5-0.5,2.5-2,2.5
		s-2.5-1-2.5-2.5s1-2,2.5-2C742.8,89.7,743.3,90.7,743.3,92.2z M743.3,105.2c0,1.5-0.5,2-2,2s-2-0.5-2-2s0.5-2,2-2
		C742.3,103.2,743.3,103.7,743.3,105.2z M742.8,118.3c0,1.5-0.5,2-1.5,2c-1.5,0-2-0.5-2-2c0-1,0.5-1.5,2-1.5
		C742.3,116.8,742.8,117.3,742.8,118.3z M742.8,131.8c0,1-0.5,1.5-1.5,1.5c-1.5,0-2-0.5-2-1.5c0-1.5,0.5-2,2-2
		C742.3,130.3,742.8,130.8,742.8,131.8z M742.3,145.4c0,1-0.5,1.5-1.5,1.5s-1.5-0.5-1.5-1.5s0.5-1.5,1.5-1.5
		C742.3,143.8,742.3,144.3,742.3,145.4z M742.3,158.4c0,0.5-0.5,1-1,1c-1,0-1.5-0.5-1.5-1c0-1,0.5-1.5,1.5-1.5
		C741.8,157.4,742.3,157.9,742.3,158.4z M742.3,171.9c0,0.5-0.5,1-1,1s-1-0.5-1-1s0.5-1,1-1S742.3,170.9,742.3,171.9z M741.8,185
		c0,0.5-0.5,1-1,1s-1-0.5-1-1s0.5-1,1-1C741.8,184.5,741.8,184.5,741.8,185z M741.8,198.5c0,0.5,0,1-0.5,1s-1-0.5-1-1s0.5-1,1-1
		C741.3,197.5,741.8,198,741.8,198.5z M741.3,211.5c0,0.5,0,0.5-0.5,0.5s-0.5,0-0.5-0.5s0-0.5,0.5-0.5S741.3,211,741.3,211.5z
		 M741.3,225.1C740.8,225.1,740.8,225.1,741.3,225.1v-0.5V225.1L741.3,225.1z M837.5,201.5c-8.5,8.5-21.1,13-36.6,13
		c-16,0-28.6-4.5-36.6-13c-8.5-8.5-12.5-21.1-12-37.1l0.5-20.1V84.2l5.5,2l-0.5,78.2c0,14.5,3.5,25.6,11,33.1s18.5,11.5,32.6,11.5
		c14,0,25.1-4,32.6-11.5s11-18.5,11-33.1V76.7h5.5v87.7C850.6,180.4,846.1,192.5,837.5,201.5z M754.8,211.5c0,0.5,0,0.5-0.5,0.5
		s-0.5,0-0.5-0.5s0-0.5,0.5-0.5S754.8,211,754.8,211.5z M754.3,225.1L754.3,225.1v-0.5V225.1C754.8,225.1,754.8,225.1,754.3,225.1z
		 M769.9,92.2c0,1.5-0.5,2.5-2,2.5s-2-1-2-2.5s0.5-2,2-2S769.9,90.7,769.9,92.2z M769.9,105.2c0,1.5-0.5,2-2,2s-2-0.5-2-2s0.5-2,2-2
		S769.9,103.7,769.9,105.2z M769.4,118.3c0,1.5-0.5,2-2,2s-2-0.5-2-2c0-1,0.5-1.5,2-1.5S769.4,117.3,769.4,118.3z M769.4,131.8
		c0,1-0.5,1.5-1.5,1.5s-1.5-0.5-1.5-1.5c0-1.5,0.5-2,1.5-2S769.4,130.8,769.4,131.8z M768.9,145.4c0,1-0.5,1.5-1.5,1.5
		s-1.5-0.5-1.5-1.5s0.5-1.5,1.5-1.5C768.4,143.8,768.9,144.3,768.9,145.4z M768.9,158.4c0,0.5-0.5,1-1.5,1s-1.5-0.5-1.5-1
		c0-1,0.5-1.5,1.5-1.5S768.9,157.9,768.9,158.4z M768.9,171.9c0,0.5-0.5,1-1,1s-1-0.5-1-1s0.5-1,1-1S768.9,170.9,768.9,171.9z
		 M767.9,225.1L767.9,225.1c-0.5,0.5-0.5,0-0.5,0H767.9C767.9,224.6,767.9,224.6,767.9,225.1z M782.9,105.2c0,1.5-0.5,2-2,2
		s-2-0.5-2-2s0.5-2,2-2S782.9,103.7,782.9,105.2z M782.9,118.3c0,1.5-0.5,2-2,2s-2-0.5-2-2c0-1,0.5-1.5,2-1.5
		S782.9,117.3,782.9,118.3z M782.4,131.8c0,1-0.5,1.5-1.5,1.5s-1.5-0.5-1.5-1.5c0-1.5,0.5-2,1.5-2S782.4,130.8,782.4,131.8z
		 M782.4,145.4c0,1-0.5,1.5-1.5,1.5s-1.5-0.5-1.5-1.5s0.5-1.5,1.5-1.5C781.9,143.8,782.4,144.3,782.4,145.4z M782.4,158.4
		c0,0.5-0.5,1-1.5,1s-1.5-0.5-1.5-1c0-1,0.5-1.5,1.5-1.5S782.4,157.9,782.4,158.4z M781.9,171.9c0,0.5-0.5,1-1,1s-1-0.5-1-1
		s0.5-1,1-1S781.9,170.9,781.9,171.9z M781.9,185c0,0.5-0.5,1-1,1s-1-0.5-1-1s0.5-1,1-1S781.9,184.5,781.9,185z M781.4,225.1
		C781.4,225.1,780.9,225.1,781.4,225.1h-0.5H781.4C780.9,224.6,781.4,224.6,781.4,225.1z M796.4,105.2c0,1.5-0.5,2-2,2s-2-0.5-2-2
		s0.5-2,2-2C795.4,103.2,796.4,103.7,796.4,105.2z M795.9,118.3c0,1.5-0.5,2-2,2c-1,0-1.5-0.5-1.5-2c0-1,0.5-1.5,1.5-1.5
		C795.4,116.8,795.9,117.3,795.9,118.3z M795.9,131.8c0,1-0.5,1.5-2,1.5c-1,0-1.5-0.5-1.5-1.5c0-1.5,0.5-2,1.5-2
		C795.4,130.3,795.9,130.8,795.9,131.8z M795.9,145.4c0,1-0.5,1.5-1.5,1.5s-1.5-0.5-1.5-1.5s0.5-1.5,1.5-1.5
		C795.4,143.8,795.9,144.3,795.9,145.4z M795.4,158.4c0,0.5-0.5,1-1.5,1c-0.5,0-1-0.5-1-1c0-1,0.5-1.5,1-1.5
		C794.9,157.4,795.4,157.9,795.4,158.4z M795.4,171.9c0,0.5-0.5,1-1,1s-1-0.5-1-1s0.5-1,1-1S795.4,170.9,795.4,171.9z M795.4,185
		c0,0.5-0.5,1-1,1s-1-0.5-1-1s0.5-1,1-1C794.9,184.5,795.4,184.5,795.4,185z M794.9,198.5c0,0.5-0.5,1-1,1s-0.5-0.5-0.5-1s0-1,0.5-1
		C794.9,197.5,794.9,198,794.9,198.5z M794.4,225.1L794.4,225.1h-0.5H794.4C794.4,224.6,794.4,224.6,794.4,225.1z M809.5,105.2
		c0,1.5-0.5,2-2,2s-2-0.5-2-2s0.5-2,2-2S809.5,103.7,809.5,105.2z M809.5,118.3c0,1.5-0.5,2-1.5,2c-1.5,0-2-0.5-2-2
		c0-1,0.5-1.5,2-1.5C809,116.8,809.5,117.3,809.5,118.3z M809.5,131.8c0,1-0.5,1.5-1.5,1.5c-1.5,0-2-0.5-2-1.5c0-1.5,0.5-2,2-2
		C809,130.3,809.5,130.8,809.5,131.8z M809,145.4c0,1-0.5,1.5-1.5,1.5s-1.5-0.5-1.5-1.5s0.5-1.5,1.5-1.5
		C808.5,143.8,809,144.3,809,145.4z M809,158.4c0,0.5-0.5,1-1,1c-1,0-1.5-0.5-1.5-1c0-1,0.5-1.5,1.5-1.5
		C808.5,157.4,809,157.9,809,158.4z M809,171.9c0,0.5-0.5,1-1,1s-1-0.5-1-1s0.5-1,1-1S809,170.9,809,171.9z M808.5,185
		c0,0.5-0.5,1-1,1s-1-0.5-1-1s0.5-1,1-1C808.5,184.5,808.5,184.5,808.5,185z M808.5,198.5c0,0.5,0,1-0.5,1s-1-0.5-1-1s0.5-1,1-1
		C808,197.5,808.5,198,808.5,198.5z M808,225.1c-0.5,0-0.5,0-0.5-0.5l0.5-0.5V225.1L808,225.1z M822.5,118.3c0,1.5-0.5,2-1.5,2
		c-1.5,0-2-0.5-2-2c0-1,0.5-1.5,2-1.5C822,116.8,822.5,117.3,822.5,118.3z M822.5,131.8c0,1-0.5,1.5-1.5,1.5s-1.5-0.5-1.5-1.5
		c0-1.5,0.5-2,1.5-2C822,130.3,822.5,130.8,822.5,131.8z M822.5,145.4c0,1-0.5,1.5-1.5,1.5s-1.5-0.5-1.5-1.5s0.5-1.5,1.5-1.5
		S822.5,144.3,822.5,145.4z M822,158.4c0,0.5-0.5,1-1,1c-1,0-1.5-0.5-1.5-1c0-1,0.5-1.5,1.5-1.5C821.5,157.4,822,157.9,822,158.4z
		 M822,171.9c0,0.5-0.5,1-1,1s-1-0.5-1-1s0.5-1,1-1S822,170.9,822,171.9z M822,185c0,0.5-0.5,1-1,1s-1-0.5-1-1s0.5-1,1-1
		C821.5,184.5,822,184.5,822,185z M821,225.1L821,225.1v-0.5V225.1C821.5,225.1,821,225.1,821,225.1z M836,118.3c0,1.5-0.5,2-2,2
		s-2-0.5-2-2c0-1,0.5-1.5,2-1.5S836,117.3,836,118.3z M836,131.8c0,1-0.5,1.5-1.5,1.5s-1.5-0.5-1.5-1.5c0-1.5,0.5-2,1.5-2
		S836,130.8,836,131.8z M835.5,145.4c0,1-0.5,1.5-1.5,1.5s-1.5-0.5-1.5-1.5s0.5-1.5,1.5-1.5S835.5,144.3,835.5,145.4z M835.5,158.4
		c0,0.5-0.5,1-1.5,1s-1.5-0.5-1.5-1c0-1,0.5-1.5,1.5-1.5S835.5,157.9,835.5,158.4z M835.5,171.9c0,0.5-0.5,1-1,1s-1-0.5-1-1
		s0.5-1,1-1S835.5,170.9,835.5,171.9z M834.5,225.1L834.5,225.1c-0.5,0.5-0.5,0-0.5,0H834.5C834.5,224.6,834.5,224.6,834.5,225.1z
		 M848.1,211.5c0,0.5,0,0.5-0.5,0.5s-0.5,0-0.5-0.5s0-0.5,0.5-0.5S848.1,211,848.1,211.5z M848.1,225.1
		C848.1,225.1,847.6,225.1,848.1,225.1c-0.5,0.5-0.5,0-0.5,0H848.1C847.6,224.6,848.1,224.6,848.1,225.1z M875.1,119.3
		c0,0.5-0.5,1-1,1l-0.5-0.5l-17-6v-2.5l18,6C875.1,117.8,875.6,118.3,875.1,119.3z M862.6,131.8c0,1-0.5,1.5-1.5,1.5
		s-1.5-0.5-1.5-1.5c0-1.5,0.5-2,1.5-2S862.6,130.8,862.6,131.8z M862.6,145.4c0,1-0.5,1.5-1.5,1.5s-1.5-0.5-1.5-1.5s0.5-1.5,1.5-1.5
		S862.6,144.3,862.6,145.4z M862.1,158.4c0,0.5-0.5,1-1.5,1c-0.5,0-1-0.5-1-1c0-1,0.5-1.5,1-1.5
		C861.6,157.4,862.1,157.9,862.1,158.4z M862.1,171.9c0,0.5-0.5,1-1,1s-1-0.5-1-1s0.5-1,1-1S862.1,170.9,862.1,171.9z M862.1,185
		c0,0.5-0.5,1-1,1s-1-0.5-1-1s0.5-1,1-1C861.6,184.5,862.1,184.5,862.1,185z M861.6,198.5c0,0.5-0.5,1-1,1s-0.5-0.5-0.5-1s0-1,0.5-1
		C861.6,197.5,861.6,198,861.6,198.5z M861.6,211.5c0,0.5,0,0.5-0.5,0.5c0,0-0.5,0-0.5-0.5s0-0.5,0.5-0.5
		C861.1,211,861.6,211,861.6,211.5z M861.1,225.1L861.1,225.1h-0.5H861.1C861.1,224.6,861.1,224.6,861.1,225.1z M876.1,131.8
		c0,1-0.5,1.5-2,1.5c-1,0-1.5-0.5-1.5-1.5c0-1.5,0.5-2,1.5-2C875.1,130.3,876.1,130.8,876.1,131.8z M875.6,145.4
		c0,1-0.5,1.5-1.5,1.5s-1.5-0.5-1.5-1.5s0.5-1.5,1.5-1.5C875.1,143.8,875.6,144.3,875.6,145.4z M875.6,158.4c0,0.5-0.5,1-1.5,1
		c-0.5,0-1-0.5-1-1c0-1,0.5-1.5,1-1.5C875.1,157.4,875.6,157.9,875.6,158.4z M875.1,171.9c0,0.5-0.5,1-1,1s-1-0.5-1-1s0.5-1,1-1
		S875.1,170.9,875.1,171.9z M875.1,185c0,0.5-0.5,1-1,1s-1-0.5-1-1s0.5-1,1-1C874.6,184.5,875.1,184.5,875.1,185z M875.1,198.5
		c0,0.5-0.5,1-1,1s-0.5-0.5-0.5-1s0-1,0.5-1S875.1,198,875.1,198.5z M874.6,211.5c0,0.5,0,0.5-0.5,0.5c0,0-0.5,0-0.5-0.5
		s0-0.5,0.5-0.5S874.6,211,874.6,211.5z M874.6,225.1c0,0,0,0.5-0.5,0.5l-0.5-0.5l0.5-0.5C874.1,224.6,874.6,224.6,874.6,225.1z"/>
	<path d="M990.4,66.6l-115.8,53.1l-0.5,0.5c-0.5,0-1-0.5-1-1c-0.5-0.5,0-1,0.5-1.5l55.6-25.6v-10h-20.1L886,82.6l-1-1l1-4.5h76.7
		l26.6-12c0.5-0.5,1,0,1.5,0.5C991.4,66.1,991.4,66.1,990.4,66.6z M888.7,131.8c0,1-0.5,1.5-1.5,1.5s-1.5-0.5-1.5-1.5
		c0-1.5,0.5-2,1.5-2C888.2,130.3,888.7,130.8,888.7,131.8z M888.2,145.4c0,1-0.5,1.5-1.5,1.5s-1.5-0.5-1.5-1.5s0.5-1.5,1.5-1.5
		C888.2,143.8,888.2,144.3,888.2,145.4z M888.2,158.4c0,0.5-0.5,1-1.5,1s-1.5-0.5-1.5-1c0-1,0.5-1.5,1.5-1.5
		C888.2,157.4,888.2,157.9,888.2,158.4z M888.2,171.9c0,0.5-0.5,1-1,1s-1-0.5-1-1s0.5-1,1-1S888.2,170.9,888.2,171.9z M887.7,185
		c0,0.5-0.5,1-1,1s-1-0.5-1-1s0.5-1,1-1C887.7,184.5,887.7,184.5,887.7,185z M887.7,198.5c0,0.5-0.5,1-1,1s-1-0.5-1-1s0.5-1,1-1
		C887.7,197.5,887.7,198,887.7,198.5z M887.7,211.5c0,0.5,0,0.5-0.5,0.5s-0.5,0-0.5-0.5s0-0.5,0.5-0.5S887.7,211,887.7,211.5z
		 M887.2,225.1L887.2,225.1c-0.5,0.5-0.5,0-0.5,0H887.2C887.2,224.6,887.2,224.6,887.2,225.1z M901.7,118.3c0,1.5-0.5,2-1.5,2
		c-1.5,0-2-0.5-2-2c0-1,0.5-1.5,2-1.5C901.2,116.8,901.7,117.3,901.7,118.3z M901.7,131.8c0,1-0.5,1.5-1.5,1.5c-1.5,0-2-0.5-2-1.5
		c0-1.5,0.5-2,2-2C901.2,130.3,901.7,130.8,901.7,131.8z M901.2,145.4c0,1-0.5,1.5-1.5,1.5s-1.5-0.5-1.5-1.5s0.5-1.5,1.5-1.5
		C901.2,143.8,901.2,144.3,901.2,145.4z M901.2,158.4c0,0.5-0.5,1-1,1c-1,0-1.5-0.5-1.5-1c0-1,0.5-1.5,1.5-1.5
		C900.7,157.4,901.2,157.9,901.2,158.4z M901.2,171.9c0,0.5-0.5,1-1,1s-1-0.5-1-1s0.5-1,1-1S901.2,170.9,901.2,171.9z M900.7,185
		c0,0.5-0.5,1-1,1s-1-0.5-1-1s0.5-1,1-1C900.7,184.5,900.7,184.5,900.7,185z M900.7,198.5c0,0.5,0,1-0.5,1s-1-0.5-1-1s0.5-1,1-1
		C900.2,197.5,900.7,198,900.7,198.5z M900.2,211.5c0,0.5,0,0.5-0.5,0.5s-0.5,0-0.5-0.5s0-0.5,0.5-0.5S900.2,211,900.2,211.5z
		 M900.2,225.1c-0.5,0-0.5,0-0.5-0.5l0.5-0.5V225.1L900.2,225.1z M914.7,118.3c0,1.5-0.5,2-2,2s-2-0.5-2-2c0-1,0.5-1.5,2-1.5
		S914.7,117.3,914.7,118.3z M914.2,131.8c0,1-0.5,1.5-1.5,1.5s-1.5-0.5-1.5-1.5c0-1.5,0.5-2,1.5-2S914.2,130.8,914.2,131.8z
		 M914.2,145.4c0,1-0.5,1.5-1.5,1.5s-1.5-0.5-1.5-1.5s0.5-1.5,1.5-1.5S914.2,144.3,914.2,145.4z M914.2,158.4c0,0.5-0.5,1-1.5,1
		s-1.5-0.5-1.5-1c0-1,0.5-1.5,1.5-1.5S914.2,157.9,914.2,158.4z M913.7,171.9c0,0.5-0.5,1-1,1s-1-0.5-1-1s0.5-1,1-1
		S913.7,170.9,913.7,171.9z M913.7,185c0,0.5-0.5,1-1,1s-1-0.5-1-1s0.5-1,1-1S913.7,184.5,913.7,185z M913.7,198.5c0,0.5-0.5,1-1,1
		s-0.5-0.5-0.5-1s0-1,0.5-1S913.7,198,913.7,198.5z M913.2,211.5c0,0.5,0,0.5-0.5,0.5s-0.5,0-0.5-0.5s0-0.5,0.5-0.5
		S913.2,211,913.2,211.5z M913.2,225.1C913.2,225.1,912.7,225.1,913.2,225.1h-0.5H913.2C912.7,224.6,913.2,224.6,913.2,225.1z
		 M925.8,225.1C925.8,225.1,925.3,225.1,925.8,225.1v-0.5V225.1C926.3,225.1,925.8,225.1,925.8,225.1z M934.8,101.2v112.3h-5.5
		V103.7L934.8,101.2z M951.3,82.2h-16.5v7.5L951.3,82.2z M938.8,225.1L938.8,225.1h-0.5H938.8C938.8,224.6,938.8,224.6,938.8,225.1z
		 M953.3,105.2c0,1.5-0.5,2-2,2s-2-0.5-2-2s0.5-2,2-2S953.3,103.7,953.3,105.2z M953.3,118.3c0,1.5-0.5,2-2,2s-2-0.5-2-2
		c0-1,0.5-1.5,2-1.5S953.3,117.3,953.3,118.3z M953.3,131.8c0,1-0.5,1.5-1.5,1.5s-1.5-0.5-1.5-1.5c0-1.5,0.5-2,1.5-2
		C952.3,130.3,953.3,130.8,953.3,131.8z M952.8,145.4c0,1-0.5,1.5-1.5,1.5s-1.5-0.5-1.5-1.5s0.5-1.5,1.5-1.5
		C952.3,143.8,952.8,144.3,952.8,145.4z M952.8,158.4c0,0.5-0.5,1-1.5,1s-1.5-0.5-1.5-1c0-1,0.5-1.5,1.5-1.5
		C952.3,157.4,952.8,157.9,952.8,158.4z M952.3,171.9c0,0.5-0.5,1-1,1s-1-0.5-1-1s0.5-1,1-1C952.3,170.9,952.3,170.9,952.3,171.9z
		 M952.3,185c0,0.5-0.5,1-1,1s-1-0.5-1-1s0.5-1,1-1C951.8,184.5,952.3,184.5,952.3,185z M951.8,198.5c0,0.5,0,1-0.5,1s-1-0.5-1-1
		s0.5-1,1-1S951.8,198,951.8,198.5z M951.8,211.5c0,0.5,0,0.5-0.5,0.5s-0.5,0-0.5-0.5s0-0.5,0.5-0.5S951.8,211,951.8,211.5z
		 M951.3,225.1L951.3,225.1v-0.5V225.1C951.8,225.1,951.8,225.1,951.3,225.1z M966.9,92.2c0,1.5-1,2.5-2.5,2.5s-2-1-2-2.5s0.5-2,2-2
		C965.9,89.7,966.9,90.7,966.9,92.2z M966.4,105.2c0,1.5-0.5,2-2,2s-2-0.5-2-2s0.5-2,2-2S966.4,103.7,966.4,105.2z M965.9,118.3
		c0,1.5-0.5,2-2,2c-1,0-1.5-0.5-1.5-2c0-1,0.5-1.5,1.5-1.5C965.4,116.8,965.9,117.3,965.9,118.3z M965.9,131.8c0,1-0.5,1.5-1.5,1.5
		s-1.5-0.5-1.5-1.5c0-1.5,0.5-2,1.5-2C965.4,130.3,965.9,130.8,965.9,131.8z M965.9,145.4c0,1-0.5,1.5-1.5,1.5s-1.5-0.5-1.5-1.5
		s0.5-1.5,1.5-1.5C965.4,143.8,965.9,144.3,965.9,145.4z M965.4,158.4c0,0.5-0.5,1-1.5,1c-0.5,0-1-0.5-1-1c0-1,0.5-1.5,1-1.5
		C964.9,157.4,965.4,157.9,965.4,158.4z M965.4,171.9c0,0.5-0.5,1-1,1s-1-0.5-1-1s0.5-1,1-1S965.4,170.9,965.4,171.9z M965.4,185
		c0,0.5-0.5,1-1,1s-1-0.5-1-1s0.5-1,1-1C964.9,184.5,965.4,184.5,965.4,185z M964.9,198.5c0,0.5-0.5,1-1,1s-0.5-0.5-0.5-1s0-1,0.5-1
		C964.9,197.5,964.9,198,964.9,198.5z M964.9,211.5c0,0.5,0,0.5-0.5,0.5c0,0-0.5,0-0.5-0.5s0-0.5,0.5-0.5
		C964.4,211,964.9,211,964.9,211.5z M964.4,225.1L964.4,225.1h-0.5H964.4C964.4,224.6,964.4,224.6,964.4,225.1z M979.4,92.2
		c0,1.5-0.5,2.5-2,2.5s-2-1-2-2.5s0.5-2,2-2S979.4,90.7,979.4,92.2z M978.9,105.2c0,1.5-0.5,2-2,2s-2-0.5-2-2s0.5-2,2-2
		S978.9,103.7,978.9,105.2z M978.9,118.3c0,1.5-0.5,2-2,2s-2-0.5-2-2c0-1,0.5-1.5,2-1.5S978.9,117.3,978.9,118.3z M978.9,131.8
		c0,1-0.5,1.5-1.5,1.5s-1.5-0.5-1.5-1.5c0-1.5,0.5-2,1.5-2S978.9,130.8,978.9,131.8z M978.4,145.4c0,1-0.5,1.5-1.5,1.5
		s-1.5-0.5-1.5-1.5s0.5-1.5,1.5-1.5S978.4,144.3,978.4,145.4z M978.4,158.4c0,0.5-0.5,1-1.5,1s-1.5-0.5-1.5-1c0-1,0.5-1.5,1.5-1.5
		S978.4,157.9,978.4,158.4z M978.4,171.9c0,0.5-0.5,1-1,1s-1-0.5-1-1s0.5-1,1-1S978.4,170.9,978.4,171.9z M977.9,185
		c0,0.5-0.5,1-1,1s-1-0.5-1-1s0.5-1,1-1C977.9,184.5,977.9,184.5,977.9,185z M977.9,198.5c0,0.5,0,1-0.5,1s-1-0.5-1-1s0.5-1,1-1
		C977.4,197.5,977.9,198,977.9,198.5z M977.9,211.5c0,0.5,0,0.5-0.5,0.5s-0.5,0-0.5-0.5s0-0.5,0.5-0.5S977.9,211,977.9,211.5z
		 M977.4,225.1L977.4,225.1c-0.5,0.5-0.5,0-0.5,0H977.4C977.4,224.6,977.4,224.6,977.4,225.1z M992.4,78.7c0,1.5-1,2.5-2.5,2.5
		s-2-1-2-2.5s0.5-2.5,2-2.5S992.4,77.2,992.4,78.7z M992.4,92.2c0,1.5-1,2.5-2.5,2.5s-2-1-2-2.5s0.5-2,2-2
		C991.4,89.7,992.4,90.7,992.4,92.2z M991.9,105.2c0,1.5-0.5,2-2,2s-2-0.5-2-2s0.5-2,2-2S991.9,103.7,991.9,105.2z M991.9,118.3
		c0,1.5-0.5,2-2,2c-1,0-1.5-0.5-1.5-2c0-1,0.5-1.5,1.5-1.5C991.4,116.8,991.9,117.3,991.9,118.3z M991.9,131.8c0,1-0.5,1.5-2,1.5
		c-1,0-1.5-0.5-1.5-1.5c0-1.5,0.5-2,1.5-2C991.4,130.3,991.9,130.8,991.9,131.8z M991.4,145.4c0,1-0.5,1.5-1.5,1.5s-1.5-0.5-1.5-1.5
		s0.5-1.5,1.5-1.5S991.4,144.3,991.4,145.4z M991.4,158.4c0,0.5-0.5,1-1.5,1c-0.5,0-1-0.5-1-1c0-1,0.5-1.5,1-1.5
		C990.9,157.4,991.4,157.9,991.4,158.4z M990.9,171.9c0,0.5-0.5,1-1,1s-1-0.5-1-1s0.5-1,1-1S990.9,170.9,990.9,171.9z M990.9,185
		c0,0.5-0.5,1-1,1s-1-0.5-1-1s0.5-1,1-1C990.4,184.5,990.9,184.5,990.9,185z M990.9,198.5c0,0.5-0.5,1-1,1s-0.5-0.5-0.5-1s0-1,0.5-1
		S990.9,198,990.9,198.5z M990.4,211.5c0,0.5,0,0.5-0.5,0.5c0,0-0.5,0-0.5-0.5s0-0.5,0.5-0.5S990.4,211,990.4,211.5z M990.4,225.1
		c0,0,0,0.5-0.5,0.5l-0.5-0.5l0.5-0.5C989.9,224.6,990.4,224.6,990.4,225.1z"/>
	<path d="M990.9,65.1l20.1,28.6v4l-22.1-31.6c-0.5-0.5-0.5-1.5,0.5-1.5C989.9,64.1,990.4,64.1,990.9,65.1z M1006,105.2
		c0,1.5-0.5,2-2,2s-2-0.5-2-2s0.5-2,2-2S1006,103.7,1006,105.2z M1006,118.3c0,1.5-0.5,2-2,2s-2-0.5-2-2c0-1,0.5-1.5,2-1.5
		S1006,117.3,1006,118.3z M1005.5,131.8c0,1-0.5,1.5-1.5,1.5s-1.5-0.5-1.5-1.5c0-1.5,0.5-2,1.5-2
		C1005,130.3,1005.5,130.8,1005.5,131.8z M1005.5,145.4c0,1-0.5,1.5-1.5,1.5s-1.5-0.5-1.5-1.5s0.5-1.5,1.5-1.5
		S1005.5,144.3,1005.5,145.4z M1005.5,158.4c0,0.5-0.5,1-1.5,1s-1.5-0.5-1.5-1c0-1,0.5-1.5,1.5-1.5
		C1005,157.4,1005.5,157.9,1005.5,158.4z M1005,171.9c0,0.5-0.5,1-1,1s-1-0.5-1-1s0.5-1,1-1C1005,170.9,1005,170.9,1005,171.9z
		 M1005,185c0,0.5-0.5,1-1,1s-1-0.5-1-1s0.5-1,1-1C1004.5,184.5,1005,184.5,1005,185z M1005,198.5c0,0.5-0.5,1-1,1s-1-0.5-1-1
		s0.5-1,1-1S1005,198,1005,198.5z M1004.5,211.5c0,0.5,0,0.5-0.5,0.5s-0.5,0-0.5-0.5s0-0.5,0.5-0.5S1004.5,211,1004.5,211.5z
		 M1004.5,225.1C1004.5,225.1,1004,225.1,1004.5,225.1c-0.5,0.5-0.5,0-0.5,0H1004.5C1004,224.6,1004.5,224.6,1004.5,225.1z
		 M1018.5,225.1c0,0,0,0.5-0.5,0.5l-0.5-0.5l0.5-0.5C1018,224.6,1018,224.6,1018.5,225.1z M1085.7,213.5H1019V76.7h69.2l1,1l-1,4.5
		l-63.7-0.5v60.2h11l4,5.5h-15v60.2h57.1L1085.7,213.5z M1033,158.4c0,0.5-0.5,1-1.5,1s-1.5-0.5-1.5-1c0-1,0.5-1.5,1.5-1.5
		C1032.5,157.4,1033,157.9,1033,158.4z M1033,171.9c0,0.5-0.5,1-1,1s-1-0.5-1-1s0.5-1,1-1S1033,170.9,1033,171.9z M1032.5,185
		c0,0.5-0.5,1-1,1s-1-0.5-1-1s0.5-1,1-1C1032.5,184.5,1032.5,184.5,1032.5,185z M1032.5,198.5c0,0.5-0.5,1-1,1s-1-0.5-1-1s0.5-1,1-1
		C1032.5,197.5,1032.5,198,1032.5,198.5z M1106.2,225.1c0,0.5,0,0.5-0.5,1h-0.5c-0.5,0-1,0-1-0.5l-72.7-104.3v-4l17.5,24.6h28.6
		l0.5,1l-1,4.5h-24.6l53.6,76.7C1106.2,224.6,1106.2,224.6,1106.2,225.1z M1032,225.1L1032,225.1c-0.5,0.5-0.5,0-0.5,0H1032
		C1032,224.6,1032,224.6,1032,225.1z M1047.1,158.4c0,0.5-0.5,1-1.5,1c-0.5,0-1-0.5-1-1c0-1,0.5-1.5,1-1.5
		C1046.6,157.4,1047.1,157.9,1047.1,158.4z M1046.6,171.9c0,0.5-0.5,1-1,1s-1-0.5-1-1s0.5-1,1-1
		C1046.6,170.9,1046.6,170.9,1046.6,171.9z M1046.6,185c0,0.5-0.5,1-1,1s-1-0.5-1-1s0.5-1,1-1C1046.6,184.5,1046.6,184.5,1046.6,185
		z M1046.6,198.5c0,0.5-0.5,1-1,1s-0.5-0.5-0.5-1s0-1,0.5-1S1046.6,198,1046.6,198.5z M1046.1,225.1c0,0,0,0.5-0.5,0.5l-0.5-0.5
		l0.5-0.5C1046.1,224.6,1046.1,224.6,1046.1,225.1z M1060.6,185c0,0.5-0.5,1-1,1s-1-0.5-1-1s0.5-1,1-1
		C1060.1,184.5,1060.6,184.5,1060.6,185z M1060.6,198.5c0,0.5-0.5,1-1,1s-1-0.5-1-1s0.5-1,1-1S1060.6,198,1060.6,198.5z
		 M1060.1,225.1L1060.1,225.1c-0.5,0.5-0.5,0-0.5,0H1060.1C1060.1,224.6,1060.1,224.6,1060.1,225.1z M1074.1,198.5c0,0.5-0.5,1-1,1
		s-0.5-0.5-0.5-1s0-1,0.5-1C1074.1,197.5,1074.1,198,1074.1,198.5z M1074.1,225.1c0,0,0,0.5-0.5,0.5l-0.5-0.5l0.5-0.5
		C1073.6,224.6,1074.1,224.6,1074.1,225.1z M1087.7,225.1L1087.7,225.1c-0.5,0.5-0.5,0-0.5,0H1087.7
		C1087.7,224.6,1087.7,224.6,1087.7,225.1z"/>
	<path d="M1132.3,197c-10-12-15-29.1-15-51.1c0-22.6,5-40.1,15.5-52.1s25.1-18,45.1-18c18.5,0,33.1,6,43.1,17.5s15,28.1,15,50.1
		c0,23.1-5,40.6-15.5,53.1s-25.1,18.5-44.6,18.5C1156.4,214.5,1142.3,208.5,1132.3,197z M1136.8,97.7c-9.5,11-14,27.1-14,47.6
		s4.5,36.6,13.5,47.6s22.1,16.5,38.6,16.5c17.5,0,31.1-5.5,40.6-17s14-27.6,14-49.1c0-20.1-4.5-35.6-13.5-46.1s-22.1-16-39.1-16
		C1159.4,81.2,1145.8,86.7,1136.8,97.7z"/>
	<path d="M1341.3,213.5h-61.7V76.7h5.5v131.8h56.1l0.5,1L1341.3,213.5z"/>
	<path d="M1440.6,213.5h-61.7V76.7h5.5v131.8h56.1l0.5,1L1440.6,213.5z"/>
	<path d="M1483.2,213.5h-5.5V76.7h5.5V213.5z"/>
</g>
</svg>
